<svg width="152" height="177" viewBox="0 0 152 177" fill="none" xmlns="http://www.w3.org/2000/svg">
<g id="paper">
<path id="Vector" d="M2.94226 33.962C7.52954 29.663 14.4802 27.0473 19.9776 26.7523C25.8749 26.4986 32.8874 28.4647 43.7617 33.6999C44.9321 34.2398 46.5062 33.3999 46.7103 32.1268C48.694 20.2177 45.3395 11.8326 43.1718 2.82899C78.6513 -4.36342 112.849 6.79849 149.512 3.41888C144.055 46.6006 155.323 98.4868 150.102 144.599C135.889 140.739 121.329 138.994 106.727 145.254C105.033 146.299 105.214 147.544 106.072 148.663C110.672 153.265 115.113 158.474 118.193 163.803C114.206 161.303 110.348 158.707 109.217 157.577C110.415 161.172 114.928 164.347 119.635 166.49C120.022 167.299 120.374 168.107 120.683 168.916C116.195 166.183 110.995 163.026 109.741 161.771C111.048 165.695 116.324 169.085 121.469 171.21C121.832 172.497 122.08 173.742 122.19 175.011C118.067 172.637 112.645 168.019 110.724 166.097C112.448 171.272 116.553 173.916 122.059 175.273C82.0061 178.875 41.8592 173.364 3.26982 175.077C8.90009 139.307 1.52548 104.95 0.714269 69.683C0.360321 57.9516 1.26598 44.462 2.94226 33.962ZM16.5706 23.0163C24.0088 17.0537 31.4978 11.1336 39.3062 4.99194C41.2447 12.9719 43.6217 19.8787 42.7789 28.7841C33.2788 24.4654 26.0617 22.2874 19.7809 22.5575C18.6765 22.6049 17.6117 22.7861 16.5706 23.0163ZM111.379 148.204C123.612 143.927 135.89 145.196 148.464 148.532C147.043 150.06 142.6 154.818 136.736 161.116C133.159 164.997 129.373 168.915 126.122 172.52C124.586 163.529 118.102 155.258 111.379 148.204Z" fill="url(#paint0_linear_2_75)"/>
</g>
<defs>
<linearGradient id="paint0_linear_2_75" x1="134.138" y1="154.022" x2="30.6383" y2="27.5218" gradientUnits="userSpaceOnUse">
<stop stop-color="#958E89"/>
<stop offset="1" stop-color="#C4B4A6"/>
</linearGradient>
</defs>
</svg>
