<svg width="202" height="202" viewBox="0 0 202 202" fill="none" xmlns="http://www.w3.org/2000/svg">
<g id="rock">
<path id="Vector" d="M14.0927 143.199C13.2563 141.226 12.4514 139.254 11.6623 137.281C5.71282 122.273 13.1773 108.733 19.837 95.4766L29.4952 76.2866C31.4363 72.4202 34.4189 69.1692 38.0802 66.8967L65.8552 49.6636L93.2987 21.2889C95.0023 19.5211 97.1763 18.278 99.5639 17.7066L118.249 13.1931C127.292 11.0311 131.174 11.3783 134.093 15.5288C144.209 29.8897 150.979 41.7098 159.99 56.0234C164.898 63.8194 176.229 81.7311 176.939 82.9147C179.117 86.5759 178.233 89.6375 178.155 93.8353C177.965 103.509 179.67 113.23 183.205 122.242C184.262 124.924 185.477 127.576 186.029 130.4C186.534 132.941 185.856 149.085 185.335 154.546C184.909 158.98 174.43 175.535 170.674 177.539C166.54 179.748 135.892 191.016 129.122 192.942C122.352 194.867 92.9989 188.16 77.7542 185.824C68.3328 184.388 58.8956 182.936 49.4742 181.5C41.2995 180.253 33.1722 181.2 28.5956 172.947C23.2142 163.289 18.3852 153.362 14.0927 143.199Z" fill="url(#paint0_linear_1_8)"/>
<path id="Vector_2" d="M49.4584 181.484C58.8798 182.92 68.317 184.372 77.7384 185.808C82.6464 186.566 89.022 187.765 95.6344 188.996C91.1841 183.725 84.5401 177.476 80.0898 172.205C79.1272 171.069 78.1487 169.885 77.8016 168.433C77.4386 166.887 77.8489 165.293 78.275 163.762C79.6322 158.744 79.9794 153.299 81.3366 148.281C72.9251 150.238 53.5458 153.962 51.9519 153.504C50.1844 152.999 48.7483 151.721 47.3753 150.474C37.3858 141.353 29.5741 132.152 21.9359 121.026C21.0364 119.717 20.1211 118.359 19.7897 116.797C19.4741 115.329 19.7108 113.814 19.9475 112.347C20.5156 108.685 21.7781 98.5381 22.7881 89.5902L19.8212 95.4766C13.1773 108.733 5.7128 122.273 11.6781 137.281C12.4672 139.27 13.272 141.242 14.1084 143.199C18.3893 153.36 23.2203 163.28 28.5798 172.915C33.1406 181.185 41.2837 180.238 49.4584 181.484Z" fill="url(#paint1_linear_1_8)"/>
<path id="Vector_3" d="M134.22 15.7023C132.278 13.4141 128.491 13.8559 124.514 17.4856L110.216 31.7834C109.332 32.6672 108.859 33.8823 108.938 35.1291L110.469 64.3244C110.516 65.3028 110.879 66.2181 111.51 66.9598C116.592 72.8936 134.551 101.41 139.759 101.41C144.951 101.41 154.025 81.1787 158.649 81.2892C159.438 81.305 163.557 81.5575 167.581 82.7884C171.337 83.9247 172.805 78.7642 172.031 75.103C168.149 68.9483 162.926 60.6947 159.99 56.0234C151.011 41.773 144.256 29.9844 134.22 15.7023Z" fill="url(#paint2_linear_1_8)"/>
<path id="Vector_4" d="M67.6858 73.1777C72.9409 72.3886 90.4739 69.4059 93.7722 68.1119C100.211 65.5711 105.892 54.7452 109.648 48.9219C109.648 48.9219 110.942 67.9067 109.648 75.3239C108.749 80.4844 105.356 107.47 101.947 113.941L81.3366 148.281L51.0523 117.996C48.48 115.424 46.8387 114.067 45.9077 110.421C43.7772 102.089 39.9108 89.7953 39.895 82.5517C39.8792 75.3081 59.4006 74.4086 67.6858 73.1777Z" fill="url(#paint3_linear_1_8)"/>
<path id="Vector_5" d="M105.987 32.7303C103.967 30.3158 103.399 26.8913 104.093 23.8297C104.677 21.2731 109.98 16.3336 111.7 14.7713L99.5639 17.7066C97.1789 18.2845 95.0065 19.5266 93.2987 21.2889L65.8551 49.6636C65.8551 49.6636 92.4308 38.5852 105.987 32.7303Z" fill="url(#paint4_linear_1_8)"/>
<path id="Vector_6" d="M183.189 122.242C180.539 115.477 178.912 108.355 178.36 101.11C169.301 107.313 164.235 115.361 149.654 117.334C145.787 117.854 139.806 118.58 136.034 119.575C131.363 120.805 127.039 124.262 120.032 124.909C115.045 125.382 102.468 125.019 104.361 127.828C106.255 130.637 117.539 136.303 120.348 138.591C124.34 141.795 127.812 145.566 131.142 149.448C132.878 151.484 135.482 156.424 138.512 157.765C139.285 158.112 140.106 158.207 140.927 157.955C142.363 157.528 143.515 156.487 144.635 155.493C155.499 145.868 167.711 137.882 180.885 131.789C182.289 131.142 183.804 130.416 184.499 129.028C184.798 128.412 184.925 127.576 184.94 126.676C184.388 125.193 183.773 123.725 183.189 122.242Z" fill="url(#paint5_linear_1_8)"/>
<path id="Vector_7" d="M186.014 130.4C185.808 129.375 185.509 128.365 185.161 127.37C184.893 128.302 184.309 129.327 183.047 130.29C179.417 133.067 165.419 137.344 150.017 150.837C139.964 159.643 139.948 160.827 137.786 170.532C134.251 186.424 128.633 192.2 127.56 193.178C128.144 193.115 128.665 193.036 129.091 192.91C135.877 191 166.508 179.717 170.643 177.507C174.399 175.503 184.877 158.949 185.303 154.514C185.84 149.085 186.519 132.941 186.014 130.4Z" fill="url(#paint6_linear_1_8)"/>
</g>
<defs>
<linearGradient id="paint0_linear_1_8" x1="138.269" y1="33.2038" x2="65.5679" y2="217.914" gradientUnits="userSpaceOnUse">
<stop stop-color="#9E958E"/>
<stop offset="0.46" stop-color="#8E8884"/>
<stop offset="1" stop-color="#757575"/>
</linearGradient>
<linearGradient id="paint1_linear_1_8" x1="13.9806" y1="189.591" x2="74.4417" y2="122.362" gradientUnits="userSpaceOnUse">
<stop stop-color="#37474F"/>
<stop offset="0.612" stop-color="#42565F" stop-opacity="0.192"/>
<stop offset="0.757" stop-color="#455A64" stop-opacity="0"/>
</linearGradient>
<linearGradient id="paint2_linear_1_8" x1="157.107" y1="105.264" x2="118.009" y2="18.5351" gradientUnits="userSpaceOnUse">
<stop stop-color="#9E958E"/>
<stop offset="0.442" stop-color="#AEA298"/>
<stop offset="1" stop-color="#C9B8A9"/>
</linearGradient>
<linearGradient id="paint3_linear_1_8" x1="59.1828" y1="164.985" x2="74.9641" y2="79.3718" gradientUnits="userSpaceOnUse">
<stop stop-color="#4C5C64"/>
<stop offset="1" stop-color="#455A64" stop-opacity="0"/>
</linearGradient>
<linearGradient id="paint4_linear_1_8" x1="65.8583" y1="32.219" x2="111.703" y2="32.219" gradientUnits="userSpaceOnUse">
<stop stop-color="#4C5C64"/>
<stop offset="1" stop-color="#455A64" stop-opacity="0"/>
</linearGradient>
<linearGradient id="paint5_linear_1_8" x1="137.709" y1="120.895" x2="191.925" y2="143.242" gradientUnits="userSpaceOnUse">
<stop stop-color="#9E958E"/>
<stop offset="0.25" stop-color="#AEA298"/>
<stop offset="0.566" stop-color="#C9B8A9"/>
</linearGradient>
<linearGradient id="paint6_linear_1_8" x1="165.144" y1="194.673" x2="154.034" y2="150.848" gradientUnits="userSpaceOnUse">
<stop stop-color="#37474F"/>
<stop offset="0.808" stop-color="#42565F" stop-opacity="0.192"/>
<stop offset="1" stop-color="#455A64" stop-opacity="0"/>
</linearGradient>
</defs>
</svg>
