<svg width="185" height="256" viewBox="0 0 185 256" fill="none" xmlns="http://www.w3.org/2000/svg">
<g id="scissors">
<g id="Group">
<g id="Group_2">
<g id="Group_3">
<path id="Vector" d="M114.523 108.331L111.775 116.453L108.502 126.07L106.401 132.212L93.5117 170.154C93.5117 170.154 93.3907 170.154 93.1882 170.235C92.5417 170.356 91.0467 170.841 88.9862 172.174C88.9862 172.174 61.4692 237.593 55.8527 249.876C55.4487 250.725 55.0852 251.493 54.7617 252.139C50.2362 260.908 50.5592 252.463 51.3672 249.109C51.3672 249.028 51.4077 248.947 51.4482 248.826C52.6602 243.25 63.6107 185.953 67.9742 166.599C68.2572 165.427 68.4997 164.417 68.7017 163.528C72.0152 150.112 76.2177 137.99 79.2482 132.414C79.7332 131.485 80.1777 130.757 80.5817 130.192C81.8342 128.576 87.0467 121.505 92.7037 113.827C97.5932 107.12 102.846 99.9276 105.998 95.6441C107.776 93.1791 108.866 91.6841 108.866 91.6841L114.523 108.331Z" fill="#B9B9B8"/>
<path id="Vector_2" d="M181.8 21.9011C178.325 12.9311 171.214 5.7786 162.203 2.3041C158.445 0.849597 154.364 0.0410971 150.081 0.00109709C131.13 -0.160903 115.614 15.0726 115.493 34.0231C115.452 40.5286 117.19 46.6301 120.301 51.8421C125.756 61.0146 135.373 67.3991 146.566 68.4496C147.576 68.5711 148.546 68.6116 149.556 68.6116C168.507 68.7726 183.982 53.4996 184.104 34.5486C184.144 30.0631 183.336 25.8206 181.8 21.9011ZM149.636 58.1456C136.464 58.0241 125.877 47.2766 125.958 34.1036C126.079 20.9716 136.827 10.3446 150 10.4656C163.132 10.5466 173.759 21.3351 173.638 34.4676C173.517 47.6401 162.769 58.2266 149.636 58.1456Z" fill="#A55623"/>
<path id="Vector_3" d="M151.778 66.5506C150.606 66.9141 148.707 67.5606 146.565 68.4496C141.999 70.4296 136.302 73.6216 133.716 78.0666C128.705 86.7541 120.301 101.583 113.149 115.523C112.866 116.089 112.341 116.372 111.775 116.453C111.007 116.534 110.199 116.13 109.997 115.241L105.512 97.6231C105.431 97.2996 105.472 96.9771 105.593 96.6536C105.714 96.3706 105.835 96.0071 105.997 95.6436C108.381 89.2186 115.088 71.7231 116.947 65.9041C118.199 61.8636 120.018 56.7316 120.301 51.8421C120.382 50.7111 120.382 49.6201 120.26 48.5291C120.099 47.1961 121.958 46.5491 123.008 47.3981C132.665 55.4796 144.464 61.0146 149.151 63.9641C150.364 64.7321 153.111 66.1461 151.778 66.5506Z" fill="#A55623"/>
</g>
<g id="Group_4">
<path id="Vector_4" d="M131.615 249.311C125.756 237.067 97.2692 172.133 97.2692 172.133C95.3297 170.921 93.9157 170.436 93.1882 170.234C92.8652 170.153 92.7032 170.153 92.7032 170.153L85.2687 149.304L79.2482 132.413L73.6317 116.735L70.7627 108.694L76.1772 91.9256C76.1772 91.9256 77.3082 93.4606 79.1672 95.8851C82.3592 100.128 87.6932 107.199 92.7032 113.826C98.1582 121.099 103.25 127.847 104.785 129.786C104.866 129.867 104.947 129.948 104.987 130.029C105.432 130.554 105.876 131.282 106.401 132.211C109.472 137.746 113.877 149.747 117.392 163.162C121.473 178.719 135.09 244.905 136.06 248.461C136.989 252.018 137.433 261.514 131.615 249.311Z" fill="#E3E2E2"/>
<path id="Vector_5" d="M67.4487 26.2651C63.4887 11.3551 49.7102 0.5256 33.5477 0.8896C14.5967 1.3336 -0.434799 17.0526 0.00970122 35.9626C0.252201 45.7006 4.4952 54.4286 11.2022 60.5301C17.4652 66.2676 25.9102 69.7026 35.1227 69.5001C36.1327 69.4596 37.1027 69.4191 38.0727 69.2981C49.2652 68.0856 58.7607 61.4996 64.0947 52.2466C67.1252 46.9936 68.7817 40.8921 68.6202 34.3866C68.5397 31.5986 68.1762 28.8511 67.4487 26.2651ZM10.5157 35.7196C10.1922 22.5876 20.6577 11.6776 33.7902 11.3546C41.1037 11.1926 47.7707 14.3851 52.2562 19.4766C55.8117 23.5171 58.0342 28.8101 58.1557 34.6291C58.4792 47.7611 48.0137 58.7111 34.8812 59.0346C28.6992 59.1561 22.9612 56.9336 18.6377 53.0951C13.7887 48.8521 10.6772 42.6701 10.5157 35.7196Z" fill="#A55623"/>
<path id="Vector_6" d="M79.5707 97.8256L75.3687 115.483C75.1667 116.372 74.3992 116.816 73.6312 116.736C73.1057 116.695 72.5402 116.413 72.2572 115.847C64.8632 102.028 56.2562 87.3191 51.0842 78.7131C48.4177 74.2681 42.6797 71.1971 38.0732 69.2981C35.9317 68.4091 34.0727 67.8031 32.8607 67.4801C31.4872 67.0756 34.2347 65.6216 35.4062 64.8536C40.0937 61.8231 51.8112 56.1256 61.3072 47.8826C62.3577 46.9936 64.2162 47.6406 64.0952 48.9736C64.0142 50.0646 64.0142 51.1556 64.0952 52.2466C64.4587 57.1356 66.3582 62.2676 67.6912 66.2676C69.5902 72.1266 76.6617 89.5826 79.1667 95.8861C79.2882 96.2496 79.4092 96.5726 79.5307 96.8556C79.6517 97.1791 79.6517 97.5021 79.5707 97.8256Z" fill="#A55623"/>
</g>
</g>
<path id="Vector_7" d="M92.8627 146.166C97.1589 146.166 100.642 142.683 100.642 138.387C100.642 134.09 97.1589 130.608 92.8627 130.608C88.5665 130.608 85.0837 134.09 85.0837 138.387C85.0837 142.683 88.5665 146.166 92.8627 146.166Z" fill="#9F9E9F"/>
</g>
<g id="Group_5">
<path id="Vector_8" opacity="0.1" d="M184.019 36.0336L151.523 68.5286C169.066 67.6781 183.15 53.6286 184.019 36.0336Z" fill="#040000"/>
<path id="Vector_9" opacity="0.1" d="M111.775 116.453C112.341 116.372 112.866 116.09 113.149 115.523C116.332 109.319 119.753 102.965 123.023 97.0286L73.6222 146.429C71.9272 151.531 70.2212 157.374 68.7012 163.527C68.4992 164.416 68.2567 165.426 67.9737 166.598C63.6102 185.952 52.6597 243.249 51.4477 248.825C51.4072 248.946 51.3667 249.027 51.3667 249.108C50.5587 252.462 50.2352 260.907 54.7612 252.138C55.0842 251.492 55.4482 250.724 55.8522 249.875C61.4687 237.592 88.9857 172.173 88.9857 172.173C91.0467 170.84 92.5417 170.355 93.1877 170.234C93.9152 170.436 95.3292 170.921 97.2687 172.133C97.2687 172.133 125.756 237.067 131.614 249.31C137.433 261.513 136.988 252.017 136.059 248.462C135.09 244.905 121.472 178.72 117.391 163.163C113.876 149.748 109.471 137.747 106.4 132.212L108.501 126.07L111.775 116.453Z" fill="#040000"/>
</g>
</g>
</svg>
